<?xml version="1.0" standalone="no"?>
<!DOCTYPE svg PUBLIC "-//W3C//DTD SVG 20010904//EN"
 "http://www.w3.org/TR/2001/REC-SVG-20010904/DTD/svg10.dtd">
<svg version="1.0" xmlns="http://www.w3.org/2000/svg"
 width="16.000000pt" height="16.000000pt" viewBox="0 0 16.000000 16.000000"
 preserveAspectRatio="xMidYMid meet">
<metadata>
Created by potrace 1.11, written by Peter Selinger 2001-2013
</metadata>
<g transform="translate(0.000000,16.000000) scale(0.012308,-0.012308)"
fill="#000000" stroke="none">
<path d="M335 984 c-99 -58 -215 -125 -258 -150 l-78 -45 27 -49 c15 -28 30
-50 34 -50 6 0 168 92 477 271 l42 24 -26 45 c-14 25 -28 48 -32 51 -3 4 -87
-40 -186 -97z"/>
<path d="M815 984 c-99 -58 -215 -125 -257 -149 l-78 -45 31 -50 c17 -28 33
-50 35 -50 2 0 25 13 51 29 27 15 140 81 253 146 113 65 206 119 208 120 3 3
-48 94 -56 99 -4 2 -88 -43 -187 -100z"/>
<path d="M965 793 c-82 -47 -151 -87 -153 -88 -2 -2 11 -26 28 -53 l31 -51 47
26 c26 15 61 34 77 44 17 10 64 37 105 60 41 23 77 43 78 45 5 4 -51 104 -58
104 -3 0 -72 -39 -155 -87z"/>
<path d="M295 684 c-72 -42 -140 -82 -153 -90 l-23 -15 27 -47 c15 -26 28 -49
30 -51 3 -3 296 161 312 174 3 3 -58 105 -61 105 -1 0 -60 -35 -132 -76z"/>
<path d="M595 579 c-82 -49 -157 -92 -165 -96 -14 -6 -181 -102 -188 -109 -3
-2 40 -82 54 -102 2 -3 165 89 431 245 l93 53 -31 50 c-17 28 -34 50 -37 49
-4 0 -74 -41 -157 -90z"/>
<path d="M973 522 l-252 -147 30 -50 c16 -27 32 -49 37 -48 7 1 197 110 420
240 l93 54 -27 50 c-15 27 -32 49 -38 48 -6 0 -124 -67 -263 -147z"/>
</g>
</svg>
