<?xml version="1.0" encoding="UTF-8"?>
<svg width="120px" height="120px" viewBox="0 0 120 120" version="1.1" xmlns="http://www.w3.org/2000/svg" xmlns:xlink="http://www.w3.org/1999/xlink" style="background: #FFFFFF;">
    <!-- Generator: Sketch 41 (35326) - http://www.bohemiancoding.com/sketch -->
    <title>landingpage</title>
    <desc>Created with Sketch.</desc>
    <defs>
        <rect id="path-1" x="62" y="40" width="24" height="8"></rect>
        <mask id="mask-2" maskContentUnits="userSpaceOnUse" maskUnits="objectBoundingBox" x="0" y="0" width="24" height="8" fill="white">
            <use xlink:href="#path-1"></use>
        </mask>
        <rect id="path-3" x="0" y="0" width="40" height="1"></rect>
        <mask id="mask-4" maskContentUnits="userSpaceOnUse" maskUnits="objectBoundingBox" x="0" y="0" width="40" height="1" fill="white">
            <use xlink:href="#path-3"></use>
        </mask>
        <rect id="path-5" x="0" y="4" width="23" height="1"></rect>
        <mask id="mask-6" maskContentUnits="userSpaceOnUse" maskUnits="objectBoundingBox" x="0" y="0" width="23" height="1" fill="white">
            <use xlink:href="#path-5"></use>
        </mask>
        <rect id="path-7" x="0" y="8" width="32" height="1"></rect>
        <mask id="mask-8" maskContentUnits="userSpaceOnUse" maskUnits="objectBoundingBox" x="0" y="0" width="32" height="1" fill="white">
            <use xlink:href="#path-7"></use>
        </mask>
        <rect id="path-9" x="0" y="12" width="37" height="1"></rect>
        <mask id="mask-10" maskContentUnits="userSpaceOnUse" maskUnits="objectBoundingBox" x="0" y="0" width="37" height="1" fill="white">
            <use xlink:href="#path-9"></use>
        </mask>
        <rect id="path-11" x="0" y="16" width="23" height="1"></rect>
        <mask id="mask-12" maskContentUnits="userSpaceOnUse" maskUnits="objectBoundingBox" x="0" y="0" width="23" height="1" fill="white">
            <use xlink:href="#path-11"></use>
        </mask>
        <rect id="path-13" x="0" y="20" width="40" height="1"></rect>
        <mask id="mask-14" maskContentUnits="userSpaceOnUse" maskUnits="objectBoundingBox" x="0" y="0" width="40" height="1" fill="white">
            <use xlink:href="#path-13"></use>
        </mask>
    </defs>
    <g id="Page-1" stroke="none" stroke-width="1" fill="none" fill-rule="evenodd">
        <g id="landingpage">
            <rect id="Rectangle-9" fill="#2196F3" x="0" y="0" width="120" height="73"></rect>
            <rect id="Rectangle-3" fill="#FFFFFF" x="10" y="6" width="18" height="6"></rect>
            <circle id="Oval" fill="#FFFFFF" cx="61" cy="64" r="6"></circle>
            <use id="Rectangle" stroke="#FFFFFF" mask="url(#mask-2)" stroke-width="2" xlink:href="#path-1"></use>
            <rect id="Rectangle" fill="#FFFFFF" x="91" y="40" width="24" height="8"></rect>
            <rect id="Rectangle-10" fill="#2196F3" x="46" y="80" width="30" height="36"></rect>
            <rect id="Rectangle-5" fill="#FFFFFF" x="47" y="81" width="28" height="20"></rect>
            <rect id="Rectangle-10" fill="#DADADA" x="86" y="83" width="24" height="30"></rect>
            <rect id="Rectangle-10" fill="#DADADA" x="10" y="83" width="24" height="30"></rect>
            <rect id="Rectangle-7" fill="#FFFFFF" x="11" y="106" width="13" height="1"></rect>
            <path d="M11,108 L31,108 L31,109 L11,109 L11,108 Z M11,110 L28,110 L28,111 L11,111 L11,110 Z M47,103 L60,103 L60,104 L47,104 L47,103 Z M47,105 L67,105 L67,106 L47,106 L47,105 Z M47,107 L64,107 L64,108 L47,108 L47,107 Z M87,105 L100,105 L100,106 L87,106 L87,105 Z M87,107 L107,107 L107,108 L87,108 L87,107 Z M87,109 L104,109 L104,110 L87,110 L87,109 Z" id="Rectangle-7" fill="#FFFFFF"></path>
            <rect id="Rectangle-5" fill="#FFFFFF" x="87" y="84" width="22" height="20"></rect>
            <rect id="Rectangle-5" fill="#FFFFFF" x="11" y="84" width="22" height="20"></rect>
            <polygon id="Triangle" fill="#2196F3" points="61 68 57 63 65 63"></polygon>
            <g id="text" transform="translate(6.000000, 26.000000)" stroke="#DADADA" stroke-width="2">
                <use id="Rectangle-6" mask="url(#mask-4)" xlink:href="#path-3"></use>
                <use id="Rectangle-6" mask="url(#mask-6)" xlink:href="#path-5"></use>
                <use id="Rectangle-6" mask="url(#mask-8)" xlink:href="#path-7"></use>
                <use id="Rectangle-6" mask="url(#mask-10)" xlink:href="#path-9"></use>
                <use id="Rectangle-6" mask="url(#mask-12)" xlink:href="#path-11"></use>
                <use id="Rectangle-6" mask="url(#mask-14)" xlink:href="#path-13"></use>
            </g>
        </g>
    </g>
</svg>
