<?xml version="1.0" encoding="UTF-8"?>
<svg width="65px" height="56px" viewBox="0 0 65 56" version="1.1" xmlns="http://www.w3.org/2000/svg" xmlns:xlink="http://www.w3.org/1999/xlink">
    <!-- Generator: Sketch 41 (35326) - http://www.bohemiancoding.com/sketch -->
    <title>LOGO</title>
    <desc>Created with Sketch.</desc>
    <defs></defs>
    <g id="Page-1" stroke="none" stroke-width="1" fill="none" fill-rule="evenodd">
        <g id="LOGO" fill="#1E1E1E">
            <g id="Group" transform="translate(32.583648, 27.936533) rotate(-30.000000) translate(-32.583648, -27.936533) translate(7.083648, 6.936533)">
                <g id="E" transform="translate(-0.000000, -0.000000)">
                    <path d="M7.10542736e-15,24 L30,24 L30,30 L7.10542736e-15,30 L7.10542736e-15,24 Z M1.77635684e-15,12 L18,12 L18,18 L1.77635684e-15,18 L1.77635684e-15,12 Z M-3.55271368e-15,0 L30,0 L30,6 L-3.55271368e-15,6 L-3.55271368e-15,0 Z" id="Combined-Shape"></path>
                </g>
                <g id="E" transform="translate(36.000000, 27.000000) scale(-1, -1) translate(-36.000000, -27.000000) translate(21.000000, 12.000000)">
                    <path d="M7.10542736e-15,24 L30,24 L30,30 L7.10542736e-15,30 L7.10542736e-15,24 Z M1.42108547e-14,12 L18,12 L18,18 L1.42108547e-14,18 L1.42108547e-14,12 Z M7.10542736e-15,0 L30,0 L30,6 L7.10542736e-15,6 L7.10542736e-15,0 Z" id="Combined-Shape"></path>
                </g>
            </g>
        </g>
    </g>
</svg>
