<?xml version="1.0" encoding="UTF-8"?>
<svg width="120px" height="120px" viewBox="0 0 120 120" version="1.1" xmlns="http://www.w3.org/2000/svg" xmlns:xlink="http://www.w3.org/1999/xlink">
    <!-- Generator: Sketch 41 (35326) - http://www.bohemiancoding.com/sketch -->
    <title>promosite</title>
    <desc>Created with Sketch.</desc>
    <defs>
        <rect id="path-1" x="0" y="0" width="40" height="1"></rect>
        <mask id="mask-2" maskContentUnits="userSpaceOnUse" maskUnits="objectBoundingBox" x="0" y="0" width="40" height="1" fill="white">
            <use xlink:href="#path-1"></use>
        </mask>
        <rect id="path-3" x="0" y="4" width="23" height="1"></rect>
        <mask id="mask-4" maskContentUnits="userSpaceOnUse" maskUnits="objectBoundingBox" x="0" y="0" width="23" height="1" fill="white">
            <use xlink:href="#path-3"></use>
        </mask>
        <rect id="path-5" x="0" y="8" width="32" height="1"></rect>
        <mask id="mask-6" maskContentUnits="userSpaceOnUse" maskUnits="objectBoundingBox" x="0" y="0" width="32" height="1" fill="white">
            <use xlink:href="#path-5"></use>
        </mask>
        <rect id="path-7" x="0" y="12" width="37" height="1"></rect>
        <mask id="mask-8" maskContentUnits="userSpaceOnUse" maskUnits="objectBoundingBox" x="0" y="0" width="37" height="1" fill="white">
            <use xlink:href="#path-7"></use>
        </mask>
        <rect id="path-9" x="0" y="16" width="23" height="1"></rect>
        <mask id="mask-10" maskContentUnits="userSpaceOnUse" maskUnits="objectBoundingBox" x="0" y="0" width="23" height="1" fill="white">
            <use xlink:href="#path-9"></use>
        </mask>
        <rect id="path-11" x="0" y="20" width="40" height="1"></rect>
        <mask id="mask-12" maskContentUnits="userSpaceOnUse" maskUnits="objectBoundingBox" x="0" y="0" width="40" height="1" fill="white">
            <use xlink:href="#path-11"></use>
        </mask>
        <rect id="path-13" x="27" y="67" width="20" height="20"></rect>
        <mask id="mask-14" maskContentUnits="userSpaceOnUse" maskUnits="objectBoundingBox" x="0" y="0" width="20" height="20" fill="white">
            <use xlink:href="#path-13"></use>
        </mask>
        <rect id="path-15" x="4" y="67" width="20" height="20"></rect>
        <mask id="mask-16" maskContentUnits="userSpaceOnUse" maskUnits="objectBoundingBox" x="0" y="0" width="20" height="20" fill="white">
            <use xlink:href="#path-15"></use>
        </mask>
        <rect id="path-17" x="50" y="67" width="20" height="20"></rect>
        <mask id="mask-18" maskContentUnits="userSpaceOnUse" maskUnits="objectBoundingBox" x="0" y="0" width="20" height="20" fill="white">
            <use xlink:href="#path-17"></use>
        </mask>
        <rect id="path-19" x="96" y="67" width="20" height="20"></rect>
        <mask id="mask-20" maskContentUnits="userSpaceOnUse" maskUnits="objectBoundingBox" x="0" y="0" width="20" height="20" fill="white">
            <use xlink:href="#path-19"></use>
        </mask>
        <rect id="path-21" x="73" y="67" width="20" height="20"></rect>
        <mask id="mask-22" maskContentUnits="userSpaceOnUse" maskUnits="objectBoundingBox" x="0" y="0" width="20" height="20" fill="white">
            <use xlink:href="#path-21"></use>
        </mask>
    </defs>
    <g id="Page-1" stroke="none" stroke-width="1" fill="none" fill-rule="evenodd">
        <g id="promosite">
            <rect id="Rectangle-13" fill="#2196F3" x="0" y="12" width="120" height="44"></rect>
            <rect id="Rectangle" fill="#FFFFFF" x="59" y="51" width="2" height="2"></rect>
            <rect id="Rectangle" fill="#FFFFFF" x="55" y="51" width="2" height="2"></rect>
            <rect id="Rectangle" fill="#FFFFFF" x="63" y="51" width="2" height="2"></rect>
            <g id="text" transform="translate(12.000000, 24.000000)" stroke="#DADADA" stroke-width="2">
                <use id="Rectangle-6" mask="url(#mask-2)" xlink:href="#path-1"></use>
                <use id="Rectangle-6" mask="url(#mask-4)" xlink:href="#path-3"></use>
                <use id="Rectangle-6" mask="url(#mask-6)" xlink:href="#path-5"></use>
                <use id="Rectangle-6" mask="url(#mask-8)" xlink:href="#path-7"></use>
                <use id="Rectangle-6" mask="url(#mask-10)" xlink:href="#path-9"></use>
                <use id="Rectangle-6" mask="url(#mask-12)" xlink:href="#path-11"></use>
            </g>
            <rect id="Rectangle-14" fill="#D8D8D8" x="99" y="5" width="18" height="2"></rect>
            <rect id="Rectangle-14" fill="#D8D8D8" x="78" y="5" width="18" height="2"></rect>
            <rect id="Rectangle-14" fill="#D8D8D8" x="57" y="5" width="18" height="2"></rect>
            <rect id="Rectangle-14" fill="#D8D8D8" x="36" y="5" width="18" height="2"></rect>
            <rect id="Rectangle-3" fill="#2196F3" x="3" y="3" width="18" height="6"></rect>
            <use id="Rectangle-15" stroke="#2196F3" mask="url(#mask-14)" stroke-width="2" xlink:href="#path-13"></use>
            <use id="Rectangle-15-Copy-2" stroke="#2196F3" mask="url(#mask-16)" stroke-width="2" xlink:href="#path-15"></use>
            <use id="Rectangle-15-Copy" stroke="#2196F3" mask="url(#mask-18)" stroke-width="2" xlink:href="#path-17"></use>
            <use id="Rectangle-15-Copy-3" stroke="#2196F3" mask="url(#mask-20)" stroke-width="2" xlink:href="#path-19"></use>
            <use id="Rectangle-15-Copy-4" stroke="#2196F3" mask="url(#mask-22)" stroke-width="2" xlink:href="#path-21"></use>
            <rect id="Path" fill="#D8D8D8" x="4" y="92" width="13" height="1"></rect>
            <rect id="Path" fill="#D8D8D8" x="4" y="94" width="20" height="1"></rect>
            <rect id="Path" fill="#D8D8D8" x="4" y="96" width="17" height="1"></rect>
            <rect id="Path" fill="#D8D8D8" x="27" y="92" width="13" height="1"></rect>
            <rect id="Path-Copy" fill="#D8D8D8" x="50" y="92" width="13" height="1"></rect>
            <rect id="Path-Copy-4" fill="#D8D8D8" x="73" y="92" width="13" height="1"></rect>
            <rect id="Path-Copy-7" fill="#D8D8D8" x="96" y="92" width="13" height="1"></rect>
            <rect id="Path" fill="#D8D8D8" x="27" y="94" width="20" height="1"></rect>
            <rect id="Path-Copy-2" fill="#D8D8D8" x="50" y="94" width="20" height="1"></rect>
            <rect id="Path-Copy-5" fill="#D8D8D8" x="73" y="94" width="20" height="1"></rect>
            <rect id="Path-Copy-8" fill="#D8D8D8" x="96" y="94" width="20" height="1"></rect>
            <rect id="Path" fill="#D8D8D8" x="27" y="96" width="17" height="1"></rect>
            <rect id="Path-Copy-3" fill="#D8D8D8" x="50" y="96" width="17" height="1"></rect>
            <rect id="Path-Copy-6" fill="#D8D8D8" x="73" y="96" width="17" height="1"></rect>
            <rect id="Path-Copy-9" fill="#D8D8D8" x="96" y="96" width="17" height="1"></rect>
            <rect id="Rectangle-16" fill="#2196F3" x="5" y="101" width="18" height="6"></rect>
            <rect id="Rectangle-16-Copy-2" fill="#2196F3" x="51" y="101" width="18" height="6"></rect>
            <rect id="Rectangle-16-Copy" fill="#2196F3" x="28" y="101" width="18" height="6"></rect>
            <rect id="Rectangle-16-Copy-3" fill="#2196F3" x="75" y="101" width="18" height="6"></rect>
            <rect id="Rectangle-16-Copy-4" fill="#2196F3" x="97" y="101" width="18" height="6"></rect>
        </g>
    </g>
</svg>
