<?xml version="1.0" encoding="UTF-8"?>
<svg width="120px" height="120px" viewBox="0 0 120 120" version="1.1" xmlns="http://www.w3.org/2000/svg" xmlns:xlink="http://www.w3.org/1999/xlink">
    <!-- Generator: Sketch 41 (35326) - http://www.bohemiancoding.com/sketch -->
    <title>webstore</title>
    <desc>Created with Sketch.</desc>
    <defs>
        <rect id="path-1" x="3" y="21" width="30" height="89"></rect>
        <mask id="mask-2" maskContentUnits="userSpaceOnUse" maskUnits="objectBoundingBox" x="0" y="0" width="30" height="89" fill="white">
            <use xlink:href="#path-1"></use>
        </mask>
    </defs>
    <g id="Page-1" stroke="none" stroke-width="1" fill="none" fill-rule="evenodd">
        <g id="webstore">
            <rect id="Rectangle-11" fill="#2196F3" x="0" y="0" width="120" height="12"></rect>
            <circle id="Oval" fill="#FFFFFF" cx="114" cy="6" r="3"></circle>
            <rect id="Rectangle-3" fill="#FFFFFF" x="3" y="3" width="18" height="6"></rect>
            <rect id="Rectangle-3" fill="#FFFFFF" x="33" y="4" width="54" height="4"></rect>
            <use id="Rectangle-12" stroke="#2196F3" mask="url(#mask-2)" stroke-width="2" xlink:href="#path-1"></use>
            <rect id="Rectangle" fill="#D8D8D8" x="6" y="24" width="18" height="1"></rect>
            <rect id="Rectangle" fill="#D8D8D8" x="6" y="28" width="16" height="1"></rect>
            <rect id="Rectangle" fill="#D8D8D8" x="6" y="32" width="20" height="1"></rect>
            <rect id="Rectangle" fill="#D8D8D8" x="6" y="36" width="18" height="1"></rect>
            <rect id="Rectangle" fill="#D8D8D8" x="6" y="40" width="14" height="1"></rect>
            <rect id="Rectangle" fill="#D8D8D8" x="6" y="44" width="18" height="1"></rect>
            <rect id="Rectangle" fill="#D8D8D8" x="7" y="48" width="15" height="1"></rect>
            <rect id="Rectangle" fill="#D8D8D8" x="6" y="52" width="20" height="1"></rect>
            <rect id="Rectangle" fill="#D8D8D8" x="6" y="56" width="19" height="1"></rect>
            <rect id="Rectangle" fill="#D8D8D8" x="6" y="60" width="13" height="1"></rect>
            <rect id="Rectangle" fill="#D8D8D8" x="6" y="64" width="16" height="1"></rect>
            <rect id="Rectangle" fill="#D8D8D8" x="6" y="68" width="18" height="1"></rect>
            <rect id="Rectangle" fill="#D8D8D8" x="6" y="72" width="16" height="1"></rect>
            <rect id="Rectangle" fill="#D8D8D8" x="6" y="76" width="17" height="1"></rect>
            <rect id="Rectangle" fill="#D8D8D8" x="6" y="80" width="20" height="1"></rect>
            <rect id="Rectangle" fill="#D8D8D8" x="6" y="84" width="19" height="1"></rect>
            <rect id="Rectangle" fill="#D8D8D8" x="6" y="88" width="20" height="1"></rect>
            <rect id="Rectangle" fill="#D8D8D8" x="6" y="92" width="18" height="1"></rect>
            <rect id="Rectangle" fill="#D8D8D8" x="6" y="96" width="21" height="1"></rect>
            <rect id="Rectangle" fill="#D8D8D8" x="6" y="100" width="15" height="1"></rect>
            <rect id="Rectangle" fill="#D8D8D8" x="6" y="104" width="20" height="1"></rect>
            <g id="card" transform="translate(36.000000, 21.000000)">
                <rect id="Rectangle-10" fill="#2196F3" x="0" y="0" width="25" height="27"></rect>
                <rect id="Rectangle-2" fill="#FFFFFF" x="1" y="21" width="10" height="1"></rect>
                <rect id="Rectangle-2" fill="#FFFFFF" x="1" y="23" width="18" height="1"></rect>
                <rect id="Rectangle-2" fill="#FFFFFF" x="1" y="25" width="13" height="1"></rect>
                <rect id="Rectangle-5" fill="#FFFFFF" x="1" y="1" width="23" height="19"></rect>
            </g>
            <g id="card" transform="translate(64.000000, 21.000000)">
                <rect id="Rectangle-10" fill="#2196F3" x="0" y="0" width="25" height="27"></rect>
                <rect id="Rectangle-2" fill="#FFFFFF" x="1" y="21" width="10" height="1"></rect>
                <rect id="Rectangle-2" fill="#FFFFFF" x="1" y="23" width="18" height="1"></rect>
                <rect id="Rectangle-2" fill="#FFFFFF" x="1" y="25" width="13" height="1"></rect>
                <rect id="Rectangle-5" fill="#FFFFFF" x="1" y="1" width="23" height="19"></rect>
            </g>
            <g id="card" transform="translate(92.000000, 21.000000)">
                <rect id="Rectangle-10" fill="#2196F3" x="0" y="0" width="25" height="27"></rect>
                <rect id="Rectangle-2" fill="#FFFFFF" x="1" y="21" width="10" height="1"></rect>
                <rect id="Rectangle-2" fill="#FFFFFF" x="1" y="23" width="18" height="1"></rect>
                <rect id="Rectangle-2" fill="#FFFFFF" x="1" y="25" width="13" height="1"></rect>
                <rect id="Rectangle-5" fill="#FFFFFF" x="1" y="1" width="23" height="19"></rect>
            </g>
            <g id="card" transform="translate(36.000000, 51.000000)">
                <rect id="Rectangle-10" fill="#2196F3" x="0" y="0" width="25" height="27"></rect>
                <rect id="Rectangle-2" fill="#FFFFFF" x="1" y="21" width="10" height="1"></rect>
                <rect id="Rectangle-2" fill="#FFFFFF" x="1" y="23" width="18" height="1"></rect>
                <rect id="Rectangle-2" fill="#FFFFFF" x="1" y="25" width="13" height="1"></rect>
                <rect id="Rectangle-5" fill="#FFFFFF" x="1" y="1" width="23" height="19"></rect>
            </g>
            <g id="card" transform="translate(64.000000, 51.000000)">
                <rect id="Rectangle-10" fill="#2196F3" x="0" y="0" width="25" height="27"></rect>
                <rect id="Rectangle-2" fill="#FFFFFF" x="1" y="21" width="10" height="1"></rect>
                <rect id="Rectangle-2" fill="#FFFFFF" x="1" y="23" width="18" height="1"></rect>
                <rect id="Rectangle-2" fill="#FFFFFF" x="1" y="25" width="13" height="1"></rect>
                <rect id="Rectangle-5" fill="#FFFFFF" x="1" y="1" width="23" height="19"></rect>
            </g>
            <g id="card" transform="translate(92.000000, 51.000000)">
                <rect id="Rectangle-10" fill="#2196F3" x="0" y="0" width="25" height="27"></rect>
                <rect id="Rectangle-2" fill="#FFFFFF" x="1" y="21" width="10" height="1"></rect>
                <rect id="Rectangle-2" fill="#FFFFFF" x="1" y="23" width="18" height="1"></rect>
                <rect id="Rectangle-2" fill="#FFFFFF" x="1" y="25" width="13" height="1"></rect>
                <rect id="Rectangle-5" fill="#FFFFFF" x="1" y="1" width="23" height="19"></rect>
            </g>
            <g id="card" transform="translate(36.000000, 81.000000)">
                <rect id="Rectangle-10" fill="#2196F3" x="0" y="0" width="25" height="27"></rect>
                <rect id="Rectangle-2" fill="#FFFFFF" x="1" y="21" width="10" height="1"></rect>
                <rect id="Rectangle-2" fill="#FFFFFF" x="1" y="23" width="18" height="1"></rect>
                <rect id="Rectangle-2" fill="#FFFFFF" x="1" y="25" width="13" height="1"></rect>
                <rect id="Rectangle-5" fill="#FFFFFF" x="1" y="1" width="23" height="19"></rect>
            </g>
            <g id="card" transform="translate(64.000000, 81.000000)">
                <rect id="Rectangle-10" fill="#2196F3" x="0" y="0" width="25" height="27"></rect>
                <rect id="Rectangle-2" fill="#FFFFFF" x="1" y="21" width="10" height="1"></rect>
                <rect id="Rectangle-2" fill="#FFFFFF" x="1" y="23" width="18" height="1"></rect>
                <rect id="Rectangle-2" fill="#FFFFFF" x="1" y="25" width="13" height="1"></rect>
                <rect id="Rectangle-5" fill="#FFFFFF" x="1" y="1" width="23" height="19"></rect>
            </g>
            <g id="card" transform="translate(92.000000, 81.000000)">
                <rect id="Rectangle-10" fill="#2196F3" x="0" y="0" width="25" height="27"></rect>
                <rect id="Rectangle-2" fill="#FFFFFF" x="1" y="21" width="10" height="1"></rect>
                <rect id="Rectangle-2" fill="#FFFFFF" x="1" y="23" width="18" height="1"></rect>
                <rect id="Rectangle-2" fill="#FFFFFF" x="1" y="25" width="13" height="1"></rect>
                <rect id="Rectangle-5" fill="#FFFFFF" x="1" y="1" width="23" height="19"></rect>
            </g>
        </g>
    </g>
</svg>
