<?xml version="1.0" encoding="UTF-8"?>
<svg width="404px" height="197px" viewBox="0 0 404 197" version="1.1" xmlns="http://www.w3.org/2000/svg" xmlns:xlink="http://www.w3.org/1999/xlink">
    <!-- Generator: Sketch 41 (35326) - http://www.bohemiancoding.com/sketch -->
    <title>WelcomeDiv</title>
    <desc>Created with Sketch.</desc>
    <defs>
        <rect id="path-1" x="12" y="11" width="200" height="114"></rect>
        <mask id="mask-2" maskContentUnits="userSpaceOnUse" maskUnits="objectBoundingBox" x="0" y="0" width="200" height="114" fill="white">
            <use xlink:href="#path-1"></use>
        </mask>
        <rect id="path-3" x="0" y="0" width="224" height="160" rx="8"></rect>
        <mask id="mask-4" maskContentUnits="userSpaceOnUse" maskUnits="objectBoundingBox" x="0" y="0" width="224" height="160" fill="white">
            <use xlink:href="#path-3"></use>
        </mask>
        <rect id="path-5" x="0" y="0" width="108" height="152" rx="6"></rect>
        <mask id="mask-6" maskContentUnits="userSpaceOnUse" maskUnits="objectBoundingBox" x="0" y="0" width="108" height="152" fill="white">
            <use xlink:href="#path-5"></use>
        </mask>
        <rect id="path-7" x="6" y="13" width="96" height="126"></rect>
        <mask id="mask-8" maskContentUnits="userSpaceOnUse" maskUnits="objectBoundingBox" x="0" y="0" width="96" height="126" fill="white">
            <use xlink:href="#path-7"></use>
        </mask>
        <rect id="path-9" x="0" y="0" width="50" height="106" rx="8"></rect>
        <mask id="mask-10" maskContentUnits="userSpaceOnUse" maskUnits="objectBoundingBox" x="0" y="0" width="50" height="106" fill="white">
            <use xlink:href="#path-9"></use>
        </mask>
        <rect id="path-11" x="3" y="14" width="45" height="80"></rect>
        <mask id="mask-12" maskContentUnits="userSpaceOnUse" maskUnits="objectBoundingBox" x="0" y="0" width="45" height="80" fill="white">
            <use xlink:href="#path-11"></use>
        </mask>
        <rect id="path-13" x="21" y="8" width="9" height="1" rx="0.5"></rect>
        <mask id="mask-14" maskContentUnits="userSpaceOnUse" maskUnits="objectBoundingBox" x="0" y="0" width="9" height="1" fill="white">
            <use xlink:href="#path-13"></use>
        </mask>
    </defs>
    <g id="Page-1" stroke="none" stroke-width="1" fill="none" fill-rule="evenodd">
        <g id="WelcomeDiv">
            <g id="iMac" transform="translate(180.000000, 0.000000)">
                <path d="M112,7 C112.552285,7 113,6.55228475 113,6 C113,5.44771525 112.552285,5 112,5 C111.447715,5 111,5.44771525 111,6 C111,6.55228475 111.447715,7 112,7 Z" id="CAM" fill="#4990E2"></path>
                <use id="Rectangle-2" stroke="#4990E2" mask="url(#mask-2)" stroke-width="2" xlink:href="#path-1"></use>
                <use id="Rectangle-3" stroke="#4990E2" mask="url(#mask-4)" stroke-width="2" xlink:href="#path-3"></use>
                <path d="M0.5,134.5 L223.502242,134.5" id="Line" stroke="#4990E2" stroke-linecap="square"></path>
            </g>
            <g id="iPad" transform="translate(60.000000, 44.000000)">
                <use id="BODY" stroke="#4990E2" mask="url(#mask-6)" stroke-width="2" xlink:href="#path-5"></use>
                <use id="SCREEN" stroke="#4990E2" mask="url(#mask-8)" stroke-width="2" xlink:href="#path-7"></use>
                <circle id="BUT" stroke="#4990E2" cx="53.5" cy="144.5" r="3.5"></circle>
                <circle id="CAM" fill="#4990E2" cx="53.5" cy="6.5" r="0.5"></circle>
            </g>
            <g id="iPhone-Front" transform="translate(0.000000, 90.000000)">
                <use id="BODY" stroke="#4990E2" mask="url(#mask-10)" stroke-width="2" xlink:href="#path-9"></use>
                <use id="SCREEN" stroke="#4990E2" mask="url(#mask-12)" stroke-width="2" xlink:href="#path-11"></use>
                <use id="Rectangle" stroke="#4990E2" mask="url(#mask-14)" stroke-width="2" xlink:href="#path-13"></use>
                <circle id="BUT" stroke="#4990E2" cx="24.5" cy="99.5" r="3.5"></circle>
                <circle id="Oval-3" fill="#4990E2" cx="25.5" cy="4.5" r="0.5"></circle>
                <circle id="Oval-3" fill="#4990E2" cx="17" cy="8.5" r="1"></circle>
            </g>
            <path d="M268,160 C268,160 268,179 266,184 C264,189 253.949457,191.715213 253.949457,191.715213 C253.425086,191.872497 253,192.443353 253,193.009369 L253,196 L330,196 L330,193.009369 C330,192.45191 329.566406,191.861328 329.045624,191.683768 C329.045624,191.683768 320,189 318,184 C316,179 316,160 316,160" id="Path-2" stroke="#4990E2"></path>
            <path d="M253.5,192.5 L329.5,192.5" id="Line" stroke="#4990E2" stroke-linecap="square"></path>
        </g>
    </g>
</svg>
